HIERARCHY
ROOT Hips
{
    OFFSET 0.000000 0.000000 0.000000
    CHANNELS 6 Xposition Yposition Zposition Zrotation Yrotation Xrotation
    JOINT LeftUpLeg
    {
        OFFSET 1.363060 -1.794630 0.839290
        CHANNELS 3 Zrotation Yrotation Xrotation
        JOINT LeftLeg
        {
            OFFSET 2.448110 -6.726130 0.000000
            CHANNELS 3 Zrotation Yrotation Xrotation
            JOINT LeftFoot
            {
                OFFSET 2.562200 -7.039589 0.000000
                CHANNELS 3 Zrotation Yrotation Xrotation
                JOINT LeftToeBase
                {
                    OFFSET 0.157640 -0.433110 2.322550
                    CHANNELS 3 Zrotation Yrotation Xrotation
                    End Site
                    {
                        OFFSET 0.000000 0.000000 0.000000
                    }
                }
            }
        }
    }
    JOINT RightUpLeg
    {
        OFFSET -1.305520 -1.794630 0.839290
        CHANNELS 3 Zrotation Yrotation Xrotation
        JOINT RightLeg
        {
            OFFSET -2.542530 -6.985549 0.000000
            CHANNELS 3 Zrotation Yrotation Xrotation
            JOINT RightFoot
            {
                OFFSET -2.568260 -7.056230 0.000000
                CHANNELS 3 Zrotation Yrotation Xrotation
                JOINT RightToeBase
                {
                    OFFSET -0.164730 -0.452590 2.363150
                    CHANNELS 3 Zrotation Yrotation Xrotation
                    End Site
                    {
                        OFFSET 0.000000 0.000000 0.000000
                    }
                }
            }
        }
    }
    JOINT Spine
    {
        OFFSET 0.028270 2.035590 -0.193380
        CHANNELS 3 Zrotation Yrotation Xrotation
        JOINT Spine1
        {
            OFFSET 0.056720 2.048850 -0.042750
            CHANNELS 3 Zrotation Yrotation Xrotation
            JOINT Neck1
            {
                OFFSET -0.054170 1.746240 0.172020
                CHANNELS 3 Zrotation Yrotation Xrotation
                JOINT Head
                {
                    OFFSET 0.104070 1.761360 -0.123970
                    CHANNELS 3 Zrotation Yrotation Xrotation
                    End Site
                    {
                        OFFSET 0.000000 0.000000 0.000000
                    }
                }
            }
            JOINT LeftShoulder
            {
                OFFSET 0.000000 0.000000 0.000000
                CHANNELS 3 Zrotation Yrotation Xrotation
                JOINT LeftArm
                {
                    OFFSET 3.362410 1.200890 -0.311210
                    CHANNELS 3 Zrotation Yrotation Xrotation
                    JOINT LeftForeArm
                    {
                        OFFSET 4.983000 -0.000000 -0.000000
                        CHANNELS 3 Zrotation Yrotation Xrotation
                        JOINT LeftHand
                        {
                            OFFSET 3.483560 -0.000000 -0.000000
                            CHANNELS 3 Zrotation Yrotation Xrotation
                            End Site
                            {
                                OFFSET 0.000000 0.000000 0.000000
                            }
                        }
                    }
                }
            }
            JOINT RightShoulder
            {
                OFFSET 0.000000 0.000000 0.000000
                CHANNELS 3 Zrotation Yrotation Xrotation
                JOINT RightArm
                {
                    OFFSET -3.136600 1.374050 -0.404650
                    CHANNELS 3 Zrotation Yrotation Xrotation
                    JOINT RightForeArm
                    {
                        OFFSET -5.241900 -0.000000 -0.000000
                        CHANNELS 3 Zrotation Yrotation Xrotation
                        JOINT RightHand
                        {
                            OFFSET -3.444170 -0.000000 -0.000000
                            CHANNELS 3 Zrotation Yrotation Xrotation
                            End Site
                            {
                                OFFSET 0.000000 0.000000 0.000000
                            }
                        }
                    }
                }
            }
        }
    }
}
MOTION
Frames: 10
Frame Time: 0.016667
20.538982 18.440367 -10.600875 0.556828 13.559393 5.824288 -12.250062 -18.194002 -38.166946 -7.034808 -12.191664 23.785164 0.005885 45.315639 -12.994652 -0.726267 0.778541 -5.204472 22.413933 -3.237493 -3.521854 0.855721 -1.864709 17.937979 11.377230 -29.641844 -5.198274 -0.914914 -3.535073 -4.650674 -1.775189 10.665642 -7.896561 -5.673672 4.980056 0.769502 4.585280 -12.458695 8.920129 -2.215599 -12.149583 -0.180216 -5.995009 7.179941 3.811144 -52.765682 5.587326 8.875376 16.946669 -1.575799 -57.241249 0.034399 -6.971772 -57.278759 2.692276 -2.195065 2.744146 41.297043 -8.263162 -0.442851 -15.814658 3.451279 -48.210228 -3.253370 4.096594 -47.270718 
20.554724 18.448626 -10.442420 0.461969 13.582956 5.863653 -12.985296 -17.257839 -38.652740 -8.313596 -13.078436 26.139540 0.494470 45.409630 -12.639146 -0.753652 0.918624 -5.446387 22.481150 -3.853909 -3.482852 0.750546 -1.884972 18.246628 12.149746 -29.313223 -4.825705 -0.822048 -3.244946 -5.367819 -1.888775 10.719456 -7.988967 -5.616528 5.013131 0.828220 4.650506 -12.512113 8.682910 -2.369342 -12.223140 0.385631 -5.982222 7.154978 3.894873 -52.694050 5.581613 8.878867 17.110561 -1.545698 -57.294380 -0.037613 -7.219029 -57.357239 2.736084 -2.156465 2.802349 41.362202 -8.163392 -0.121611 -15.834477 3.353705 -48.425343 -3.155793 3.967552 -47.516174 
20.571623 18.450089 -10.278928 0.382314 13.564379 5.892720 -13.583673 -16.618731 -38.789860 -10.392090 -15.698360 29.292318 0.441158 47.175358 -13.501599 -0.762649 0.659322 -5.377651 22.527849 -3.783682 -3.086522 1.042511 -1.331043 18.724201 12.520478 -29.880337 -5.401445 -0.787801 -3.124771 -5.544243 -2.018509 10.765972 -8.007728 -5.598849 5.046171 0.797995 4.696781 -12.385940 9.002966 -1.954795 -12.102723 -0.764894 -6.088103 7.245301 3.833142 -52.364384 5.656913 8.827441 17.085293 -1.569462 -57.627548 0.485941 -6.556034 -57.709225 2.822195 -2.216157 2.791551 41.389698 -8.081701 0.192038 -15.729471 3.167508 -48.608452 -3.600150 3.827239 -47.787605 
20.588554 18.447138 -10.114437 0.276656 13.362358 5.983519 -14.182827 -15.871208 -38.578888 -10.902238 -16.333086 30.509981 0.275865 46.487850 -13.605446 -0.694882 0.420809 -4.819633 22.599659 -3.961868 -2.945237 1.190895 -0.840160 19.255634 12.718637 -30.365311 -5.176728 -0.706108 -2.880532 -6.479066 -2.146748 10.851305 -8.131938 -5.534064 5.097811 0.817813 4.549501 -12.364305 8.960977 -1.679373 -12.114772 -0.205158 -6.040614 7.279418 3.908356 -52.182842 5.596929 8.369650 17.033443 -1.725039 -57.457951 0.290657 -6.765046 -57.475891 2.856945 -2.153877 2.764419 41.583408 -7.986914 0.272528 -15.637079 3.110110 -48.325527 -2.800811 4.312083 -47.537277 
20.616718 18.432434 -9.937978 0.149032 13.111390 5.876703 -14.085161 -15.963148 -37.519897 -11.525829 -17.137976 31.229681 -0.661840 46.614067 -14.435103 -0.807660 0.459173 -5.569562 22.663269 -4.330783 -2.504999 1.143099 -0.777971 19.506495 13.036022 -30.078142 -5.207856 -0.662552 -2.735082 -6.895179 -2.094583 10.923336 -8.136049 -5.513314 5.135941 0.775501 4.539728 -12.298359 9.123274 -1.913303 -11.991083 -0.640518 -6.060010 7.323496 3.791037 -52.021809 5.874846 8.622410 17.189945 -1.673197 -57.582977 0.446574 -6.591634 -57.642666 2.903806 -2.161827 2.768014 41.561825 -7.985858 0.174569 -15.325207 3.126044 -48.358639 -3.064228 4.158306 -47.571812 
20.646599 18.410881 -9.763608 -0.017019 12.627375 5.790954 -13.848302 -16.098955 -36.148579 -11.327353 -17.243488 30.854319 -1.448369 46.242100 -14.842860 -0.771479 0.441761 -5.326687 22.724699 -4.613573 -2.097588 1.137169 -0.560232 19.937572 13.228778 -29.813814 -5.184368 -0.619091 -2.587487 -7.338161 -2.052229 11.084960 -8.182704 -5.439907 5.221483 0.816274 4.384897 -12.183602 9.127254 -1.486064 -11.920190 -0.507145 -6.020001 7.414865 3.881567 -51.893551 5.888437 8.011868 17.145750 -1.885002 -57.352978 0.541329 -6.513294 -57.341530 2.985938 -2.122844 2.761507 41.511044 -7.951304 0.071813 -15.021041 2.996585 -48.454796 -3.485634 3.600267 -47.696518 
20.676022 18.383858 -9.578839 -0.198660 12.029675 5.773148 -13.507059 -16.313181 -34.621147 -10.614782 -16.840408 29.831575 -2.111627 45.668980 -14.892562 -0.792067 0.362917 -5.421028 22.759962 -4.765363 -1.714921 1.607119 0.595007 20.816637 13.314886 -30.440535 -5.991816 -0.621471 -2.612608 -7.502926 -2.011408 11.189245 -8.334712 -5.352882 5.286849 0.874571 4.342153 -11.983047 9.229011 -1.462083 -11.700682 -1.115317 -5.999122 7.613317 3.818333 -51.804493 5.951485 8.235509 17.140259 -1.882022 -57.312679 0.633175 -6.707690 -57.322159 3.062863 -2.237798 2.950340 41.629765 -7.487425 0.726807 -14.991142 2.715610 -48.553165 -3.320587 3.634393 -47.917053 
20.710159 18.345995 -9.387874 -0.338457 11.230135 5.703820 -13.324265 -16.390131 -32.789051 -9.776018 -16.811279 28.656048 -2.750516 45.636662 -14.748868 -0.870301 0.156998 -5.832513 22.681480 -5.278079 -1.358526 1.487832 0.729014 21.315742 13.433572 -29.472824 -5.772281 -0.609501 -2.593980 -7.882803 -1.961099 11.443780 -8.534687 -5.282178 5.416236 0.883949 4.369248 -11.790659 8.815099 -1.829399 -11.508548 0.393725 -5.961749 7.584918 3.865199 -51.744427 6.189411 8.279943 17.083990 -1.944171 -57.224895 0.461286 -6.594015 -57.205204 3.117495 -2.087018 2.927486 41.693653 -7.583130 0.850950 -14.699980 2.641459 -48.240868 -2.999188 3.950468 -47.651398 
20.749237 18.299404 -9.192511 -0.513145 10.533398 5.687986 -13.382255 -16.292881 -30.811605 -8.568172 -16.769588 27.184593 -3.279812 45.201576 -14.425621 -0.722659 0.430849 -5.004868 22.631845 -5.706086 -0.977497 1.102340 0.269092 21.501926 13.478378 -28.052572 -5.528468 -0.589422 -2.540304 -8.288311 -1.898012 11.507607 -8.664090 -5.183163 5.458318 0.862531 4.177830 -11.417113 9.238770 -1.069916 -11.140770 -0.868662 -5.940262 7.724857 3.870980 -51.696476 6.286922 8.454467 17.044544 -1.883276 -57.218773 0.571497 -6.737314 -57.252522 3.245362 -2.134411 2.842988 41.673058 -7.442132 0.899059 -14.431210 2.560220 -48.074635 -2.818665 3.797766 -47.506798 
20.788450 18.245331 -8.988652 -0.654914 9.786078 5.672235 -13.102370 -16.682693 -28.713030 -8.072601 -17.130350 26.156435 -3.433976 46.231148 -14.282578 -0.683371 0.350531 -4.707453 22.497833 -5.980731 -0.486278 1.213123 0.666408 22.105387 13.702880 -27.403761 -5.873466 -0.579013 -2.526829 -8.666469 -1.682667 11.523664 -8.866359 -5.188554 5.463325 0.902347 4.384577 -10.814537 9.143996 -2.252864 -10.377795 -0.782762 -5.955895 7.742591 3.923309 -51.652100 6.471213 8.794424 17.131990 -1.812210 -57.032955 0.020936 -7.500991 -57.106930 3.207621 -2.178185 2.855307 41.796192 -7.143506 0.675768 -14.095368 2.546613 -47.932354 -3.129770 3.700047 -47.362053 
